<?xml version="1.0" encoding="utf-8"?>
<!-- Generator: Adobe Illustrator 19.1.0, SVG Export Plug-In . SVG Version: 6.00 Build 0)  -->
<!DOCTYPE svg PUBLIC "-//W3C//DTD SVG 1.1//EN" "http://www.w3.org/Graphics/SVG/1.1/DTD/svg11.dtd">
<svg version="1.1" id="Layer_2" xmlns="http://www.w3.org/2000/svg" xmlns:xlink="http://www.w3.org/1999/xlink" x="0px" y="0px"
	 viewBox="0 0 360.7 83" style="enable-background:new 0 0 360.7 83;" xml:space="preserve">
<g>
	<path d="M20.2,0.6h-3.3l1.7,4.1L20.2,0.6z M13.9,0.6h-3.7l5,12.3L17,8.4L13.9,0.6z M21.8,12.8l4.5-12.2H24V0h4.8v0.6h-1.7L21,16.9
		h-0.4l-3.1-7.6l-3.1,7.6h-0.5L7.2,0.6H5.4V0h17.2v0.6h-1.8l-2,4.9L21.8,12.8z"/>
	<path d="M29.8,49.9c5.4,0,7.2-0.2,9.5-1.2c5.2-2.1,7.5-6.8,7.5-15.3c0-6.2-2.1-10.8-5.8-12.7c-1.6-0.8-3.6-1.3-5.9-1.3h-2.9h-8.9
		v30.4H29.8z M23.2,79.9h11v2.5H0v-2.5h10.9V19.5H0V17h35.4c15,0,24.2,6.7,24.2,17.6c0,11.5-9.4,17.9-26.5,17.9h-9.9V79.9z"/>
	<polygon points="84.1,35.2 84.2,35.2 90.4,17 96.5,17 102.3,35.2 102.4,35.2 107.9,17 115.9,17 106.5,45.1 98.6,45.1 93.5,28.8 
		93.4,28.8 87.6,45.1 79.8,45.1 70.9,17 78.9,17 	"/>
	<path d="M121.4,35.6c0,2.4,1.7,4.3,4.6,4.3c2.9,0,4.6-1.9,4.6-4.3c0-2.3-1.7-4.3-4.6-4.3C123.1,31.2,121.4,33.2,121.4,35.6
		 M137.5,45.1h-7.1V43h-0.1c-1.3,1.9-3.7,2.8-6.1,2.8c-6,0-10.2-4.7-10.2-10.2c0-5.5,4.1-10.2,10.1-10.2c2.3,0,4.8,0.8,6.2,2.5V26
		h7.1V45.1z"/>
	<polygon points="149.8,45.1 142.6,45.1 142.6,31.6 140.3,31.6 140.3,26 142.6,26 142.6,20.3 149.8,20.3 149.8,26 153.8,26 
		153.8,31.6 149.8,31.6 	"/>
	<path d="M164.6,45.1h-7.1V31.6H155V26h2.5v-2.4c0-2.6,0.1-4.6,2-6.7c1.8-2,4.3-3.1,7-3.1c1.1,0,2.1,0.2,3.1,0.7v5.9
		c-0.8-0.3-1.6-0.6-2.5-0.6c-1.8,0-2.5,1-2.5,3.2V26h5v5.6h-5V45.1z"/>
	<path d="M177.8,35.6c0,2.4,1.7,4.3,4.6,4.3c2.9,0,4.6-1.9,4.6-4.3c0-2.3-1.7-4.3-4.6-4.3C179.4,31.2,177.8,33.2,177.8,35.6
		 M194.5,35.6c0,6.5-5.7,10.2-12.1,10.2c-6.4,0-12.1-3.7-12.1-10.2c0-6.5,5.7-10.2,12.1-10.2C188.8,25.4,194.5,29,194.5,35.6"/>
	<path d="M204.6,29.1L204.6,29.1c1.5-2.3,3.8-3.4,6.6-3.4h1.4v6.5c-1-0.5-1.9-0.6-3-0.6c-4,0-4.9,2.5-4.9,5.8v7.7h-7.1V26h7.1V29.1z
		"/>
	<path d="M221.1,35.6c0,2.4,1.7,4.3,4.6,4.3c2.9,0,4.6-1.9,4.6-4.3c0-2.3-1.7-4.3-4.6-4.3C222.8,31.2,221.1,33.2,221.1,35.6
		 M230.1,43L230.1,43c-1.3,1.9-3.8,2.8-6.2,2.8c-6,0-10.2-4.7-10.2-10.2c0-5.5,4.1-10.2,10.1-10.2c2.3,0,4.7,0.8,6.2,2.5V14.2h7.1
		v30.9h-7.1V43z"/>
	<path d="M81.7,67.2H83c2.8,0,5.5,0,5.5-3.4c0-3.5-2.6-3.6-5.5-3.6h-1.3V67.2z M74,54.3h11.8c6.4,0,10.8,2.8,10.8,9.2
		c0,6.6-3.8,9.5-10.5,9.5h-4.4v9.3H74V54.3z"/>
	<path d="M104.1,72.8c0,2.4,1.7,4.3,4.6,4.3c2.9,0,4.6-1.9,4.6-4.3c0-2.3-1.7-4.3-4.6-4.3C105.8,68.5,104.1,70.5,104.1,72.8
		 M120.2,82.4H113v-2.1H113c-1.3,1.9-3.7,2.8-6.1,2.8c-6,0-10.2-4.7-10.2-10.2c0-5.5,4.1-10.2,10.1-10.2c2.3,0,4.7,0.8,6.2,2.5v-1.9
		h7.1V82.4z"/>
	<rect x="124.4" y="51.4" width="7.1" height="30.9"/>
	<path d="M141.9,72.8c0,2.4,1.7,4.3,4.6,4.3c2.9,0,4.6-1.9,4.6-4.3c0-2.3-1.7-4.3-4.6-4.3C143.6,68.5,141.9,70.5,141.9,72.8
		 M158,82.4h-7.1v-2.1h-0.1c-1.3,1.9-3.7,2.8-6.1,2.8c-6,0-10.2-4.7-10.2-10.2c0-5.5,4.1-10.2,10.1-10.2c2.3,0,4.7,0.8,6.2,2.5v-1.9
		h7.1V82.4z"/>
	<path d="M177,69.5c-1.1-0.7-2.3-1.3-3.7-1.3c-2.7,0-4.9,2-4.9,4.7c0,2.8,2.1,4.7,5,4.7c1.3,0,2.6-0.5,3.6-1.3v5.7
		c-1.6,0.7-3.3,1.1-5,1.1c-6,0-10.9-4.2-10.9-10c0-6.1,4.9-10.4,11.3-10.4c1.6,0,3.3,0.4,4.7,1.1V69.5z"/>
	<path d="M195.2,70c-0.4-1.8-2.1-3-4-3c-2.1,0-3.8,1-4.2,3H195.2z M201.8,73.9h-15c0,2.8,1.5,4.2,4.5,4.2c1.5,0,2.6-0.5,3.4-1.8h6.9
		c-1.1,4.5-5.7,6.6-10.2,6.6c-6.7,0-11.7-3.6-11.7-10.2c0-6.4,4.6-10.2,11.1-10.2c7,0,11,4.1,11,10.6V73.9z"/>
	<polygon points="224.4,82.4 216.7,82.4 216.7,60.5 210.4,60.5 210.4,54.3 230.8,54.3 230.8,60.5 224.4,60.5 	"/>
	<path d="M240.3,51.4v14.2h0.1c1.7-2.1,3.7-3.1,6.4-3.1c5.1,0,7.6,3.2,7.6,8v11.7h-7.1v-9.8c0-2.2-0.4-4.5-3.2-4.5
		c-2.8,0-3.7,2.3-3.7,4.5v9.8h-7.1V51.4H240.3z"/>
	<path d="M272.3,70c-0.4-1.8-2.1-3-4-3c-2.1,0-3.8,1-4.2,3H272.3z M278.9,73.9h-15c0,2.8,1.5,4.2,4.5,4.2c1.5,0,2.6-0.5,3.4-1.8h6.9
		C277.5,81,273,83,268.4,83c-6.7,0-11.7-3.6-11.7-10.2c0-6.4,4.6-10.2,11.1-10.2c7,0,11,4.1,11,10.6V73.9z"/>
	<path d="M288.1,72.8c0,2.4,1.7,4.3,4.6,4.3s4.6-1.9,4.6-4.3c0-2.3-1.7-4.3-4.6-4.3S288.1,70.5,288.1,72.8 M304.2,82.4H297v-2.1H297
		c-1.3,1.9-3.7,2.8-6.1,2.8c-6,0-10.2-4.7-10.2-10.2c0-5.5,4.1-10.2,10.1-10.2c2.3,0,4.7,0.8,6.2,2.5v-1.9h7.1V82.4z"/>
	<polygon points="316.5,82.4 309.3,82.4 309.3,68.8 307,68.8 307,63.3 309.3,63.3 309.3,57.5 316.5,57.5 316.5,63.3 320.5,63.3 
		320.5,68.8 316.5,68.8 	"/>
	<g>
		<path d="M329.7,66.4L329.7,66.4c1.5-2.3,3.8-3.4,6.6-3.4h1.4v6.5c-1-0.5-1.9-0.6-3-0.6c-4,0-4.9,2.5-4.9,5.8v7.7h-7.1V63.3h7.1
			V66.4z"/>
		<path d="M354.1,70c-0.4-1.8-2.1-3-4-3c-2.1,0-3.8,1-4.2,3H354.1z M360.7,73.9h-15c0,2.8,1.5,4.2,4.5,4.2c1.5,0,2.6-0.5,3.4-1.8
			h6.9c-1.1,4.5-5.6,6.6-10.2,6.6c-6.7,0-11.7-3.6-11.7-10.2c0-6.4,4.6-10.2,11.1-10.2c7,0,11,4.1,11,10.6V73.9z"/>
	</g>
</g>
</svg>
